#!OML:ASF E:\emotionWalksFemale\Project 1\Capture day 1\Session 1\Female1.ASF
:FULLY-SPECIFIED
:DEGREES
311
root 7.84683 11.4525 24.8153 -154.029 1.578 -178.322
lowerback 51.5265 0.160569 -2.44624
upperback 0.965788 0.725076 0.2855
thorax -20.3935 1.22878 0.819088
lowerneck -11.6755 -5.0681 -4.83228
upperneck -19.2097 -2.90386 8.75944
head -3.62025 -0.191188 3.4434
rclavicle -5.76476e-015 -9.93923e-017
rhumerus 36.7689 -7.12217 -17.3613
rradius 98.2203
rwrist 13.6457
rhand -32.6982 -43.7133
rfingers 7.12502
rthumb -5.92284 -73.6105
lclavicle -5.76476e-015 -9.93923e-017
lhumerus 39.0909 20.3253 41.5268
lradius 103.442
lwrist 49.0011
lhand -28.9421 -81.5728
lfingers 7.12502
lthumb -2.29576 -51.6054
rfemur -85.2717 0.273165 31.3337
rtibia 95.2883
rfoot -35.4354 -20.4496
rtoes 5.06767
lfemur -88.6217 5.70989 -25.1455
ltibia 95.8078
lfoot -37.6933 -7.61712
ltoes -14.3224
312
root 7.8319 11.4133 24.8073 -153.673 1.89174 -178.134
lowerback 52.0608 0.188124 -2.42589
upperback 1.02491 0.780476 0.152801
thorax -20.3987 1.26206 0.612731
lowerneck -12.9493 -4.95547 -4.80834
upperneck -18.1169 -2.7839 8.85945
head -3.10213 -0.122128 3.44716
rclavicle -7.95139e-016 1.78906e-015
rhumerus 36.2472 -5.08279 -17.9398
rradius 97.9258
rwrist 13.2235
rhand -32.8823 -44.6585
rfingers 7.12502
rthumb -6.10063 -74.5507
lclavicle -7.95139e-016 1.78906e-015
lhumerus 36.1974 18.1114 42.4623
lradius 104.968
lwrist 46.998
lhand -28.9708 -82.5333
lfingers 7.12502
lthumb -2.32347 -52.5663
rfemur -85.871 0.140823 31.6869
rtibia 95.7627
rfoot -35.756 -19.8846
rtoes 4.73324
lfemur -89.3084 6.22354 -25.4331
ltibia 96.3556
lfoot -37.9636 -7.90202
ltoes -13.4968
313
root 7.836 11.3743 24.8111 -153.262 2.02202 -178.031
lowerback 52.3866 0.34385 -2.33203
upperback 1.03146 1.05823 0.202508
thorax -20.4485 1.36966 0.471022
lowerneck -12.8026 -5.06257 -5.45491
upperneck -17.8688 -2.92523 9.13089
head -3.01696 -0.189973 3.63704
rclavicle 5.96354e-016 -2.38542e-015
rhumerus 35.6773 -3.29191 -17.8752
rradius 97.0106
rwrist 13.4604
rhand -32.9666 -44.4525
rfingers 7.12502
rthumb -6.18201 -74.3423
lclavicle 5.96354e-016 -2.38542e-015
lhumerus 35.7502 16.2454 42.9616
lradius 104.15
lwrist 47.2533
lhand -28.895 -83.069
lfingers 7.12502
lthumb -2.2503 -53.1011
rfemur -86.6457 -0.011761 32.0973
rtibia 96.177
rfoot -35.8897 -19.4134
rtoes 4.91627
lfemur -90.1389 6.74328 -25.7658
ltibia 96.8205
lfoot -37.9985 -8.50512
ltoes -12.3041
314
root 7.8444 11.3371 24.811 -152.978 2.35688 -177.829
lowerback 52.7913 0.662023 -2.65486
upperback 1.27578 1.36172 0.281998
thorax -20.1997 1.54342 0.540373
lowerneck -12.84 -5.11242 -5.49741
upperneck -18.0546 -2.96459 9.04905
head -3.0669 -0.188327 3.61933
rclavicle 5.36719e-015 -1.78906e-015
rhumerus 34.6566 -1.37365 -18.6181
rradius 96.6058
rwrist 15.2213
rhand -33.1419 -44.7818
rfingers 7.12502
rthumb -6.35122 -74.6666
lclavicle 5.36719e-015 -1.78906e-015
lhumerus 35.94 15.0963 43.2282
lradius 102.967
lwrist 48.0227
lhand -28.3395 -82.8405
lfingers 7.12502
lthumb -1.71384 -52.8677
rfemur -87.1769 0.0651797 32.4929
rtibia 96.5459
rfoot -36.0256 -18.9023
rtoes 5.84832
lfemur -90.8171 7.52198 -26.0685
ltibia 97.3111
lfoot -38.0325 -9.07112
ltoes -10.7478
315
root 7.84572 11.3032 24.8109 -152.8 2.48477 -177.809
lowerback 53.2537 0.79093 -2.72243
upperback 1.48744 1.57156 0.305053
thorax -19.9971 1.66113 0.473227
lowerneck -12.3722 -5.17888 -5.62725
upperneck -18.4168 -3.06883 8.94379
head -3.24008 -0.238105 3.61562
rclavicle 1.21259e-014 7.30534e-015
rhumerus 33.539 0.458921 -19.4357
rradius 96.2166
rwrist 15.9729
rhand -33.3305 -44.8945
rfingers 7.12502
rthumb -6.53326 -74.7738
lclavicle 1.21259e-014 7.30534e-015
lhumerus 35.7493 13.3012 44.1842
lradius 102.335
lwrist 47.5811
lhand -27.6687 -82.6037
lfingers 7.12502
lthumb -1.06589 -52.6267
rfemur -87.6555 -0.21187 32.8236
rtibia 96.9647
rfoot -36.2376 -18.4691
rtoes 6.17498
lfemur -91.351 7.91647 -26.4346
ltibia 97.7108
lfoot -38.0675 -9.12923
ltoes -11.036
316
root 7.84499 11.2687 24.8103 -152.618 2.58294 -177.867
lowerback 53.8731 0.802487 -3.10602
upperback 1.78547 1.44786 0.198589
thorax -19.6847 1.6849 0.574522
lowerneck -12.76 -5.04125 -4.91237
upperneck -18.5614 -2.89653 8.66689
head -3.26235 -0.150374 3.40882
rclavicle 1.39149e-015 -3.37934e-015
rhumerus 33.2127 2.01408 -20.7604
rradius 95.4603
rwrist 16.4728
rhand -33.4871 -45.3189
rfingers 7.12502
rthumb -6.6845 -75.1934
lclavicle 1.39149e-015 -3.37934e-015
lhumerus 35.1685 12.3657 44.2342
lradius 101.609
lwrist 47.6194
lhand -27.4186 -83.2515
lfingers 7.12502
lthumb -0.824409 -53.2734
rfemur -88.1761 -0.592212 33.1623
rtibia 97.4047
rfoot -36.2596 -18.3356
rtoes 4.67715
lfemur -91.8699 8.23152 -26.8765
ltibia 98.0496
lfoot -38.2026 -9.11497
ltoes -12.4387
